Patient4_TMGait_0pt7_01_right_08_GRF.mot
version=1
nRows=26
nColumns=19
inDegrees=no
endheader
time	F1x	F1y	F1z	M1x	M1y	M1z	F2x	F2y	F2z	M2x	M2y	M2z	EC1x	EC1y	EC1z	EC2x	EC2y	EC2z
8.64	12.6961	745.1971	57.4367	-246.479	-56.2796	737.1188	-4.7992	-6.7761	-3.9871	-0.45839	4.1613	-6.9834	-0.0592	0.0182	-0.0073	-0.0462	0.0165	0.9585
8.6516	9.1755	752.0579	59.5789	-249.5828	-57.385	740.1926	-3.2112	-3.5553	-2.8212	0.11512	2.979	-3.5794	-0.0592	0.0182	-0.0073	-0.0462	0.0165	0.9585
8.6633	6.9603	759.9841	61.3332	-252.9092	-57.8517	743.529	-1.9476	-0.75193	-1.7717	0.61505	1.9447	-0.59507	-0.0592	0.0182	-0.0073	-0.0462	0.0165	0.9585
8.6749	6.1517	767.9661	62.6605	-256.0487	-57.7149	746.3617	-1.0597	1.47	-0.93477	1.0161	1.1405	1.802	-0.0592	0.0182	-0.0073	-0.0462	0.0165	0.9585
8.6866	6.5618	774.8889	63.5982	-258.6093	-57.0978	747.8201	-0.48616	3.0877	-0.32529	1.3147	0.5653	3.5642	-0.0592	0.0182	-0.0073	-0.0462	0.0165	0.9585
8.6982	7.928	779.8023	64.2469	-260.2953	-56.1697	747.172	-0.20114	4.1763	0.068345	1.5223	0.20917	4.7824	-0.0592	0.0182	-0.0073	-0.0462	0.0165	0.9585
8.7099	9.9906	782.0647	64.6726	-260.9466	-55.0447	743.9388	-0.098847	4.8265	0.29201	1.651	0.017838	5.53	-0.0592	0.0182	-0.0073	-0.0462	0.0165	0.9585
8.7215	12.5414	781.3993	64.9252	-260.5449	-53.7961	737.8985	-0.15941	5.1204	0.3789	1.7054	-0.033057	5.902	-0.0592	0.0182	-0.0073	-0.0462	0.0165	0.9585
8.7331	15.4487	777.9003	65.011	-259.2034	-52.4305	729.1558	-0.29386	5.079	0.37245	1.6746	0.012297	5.8898	-0.0592	0.0182	-0.0073	-0.0462	0.0165	0.9585
8.7448	18.66	771.9907	64.908	-257.1443	-50.9122	718.0789	-0.50123	4.7004	0.29274	1.539	0.14515	5.487	-0.0592	0.0182	-0.0073	-0.0462	0.0165	0.9585
8.7564	22.1348	764.3618	64.5985	-254.6707	-49.2094	705.2777	-0.70618	3.9222	0.16231	1.2626	0.33053	4.5913	-0.0592	0.0182	-0.0073	-0.0462	0.0165	0.9585
8.7681	25.9275	755.9085	64.0484	-252.1365	-47.2549	691.5499	-0.91186	2.6996	-0.0028261	0.81291	0.55141	3.1617	-0.0592	0.0182	-0.0073	-0.0462	0.0165	0.9585
8.7797	30.052	747.6648	63.2835	-249.9113	-45.0435	677.8335	-1.0468	0.95838	-0.19105	0.15631	0.77363	1.0964	-0.0592	0.0182	-0.0073	-0.0462	0.0165	0.9585
8.7914	34.5191	740.651	62.3499	-248.3271	-42.589	665.0549	-1.089	-1.2808	-0.37899	-0.70641	0.95963	-1.5589	-0.0592	0.0182	-0.0073	-0.0462	0.0165	0.9585
8.803	39.2557	735.7769	61.3998	-247.6343	-40.0166	654.1141	-0.9315	-3.9409	-0.53194	-1.7399	1.031	-4.7214	-0.0592	0.0182	-0.0073	-0.0462	0.0165	0.9585
8.8146	44.1026	733.5857	60.6457	-247.9306	-37.5257	645.5938	-0.50289	-6.7005	-0.58863	-2.819	0.88879	-7.9865	-0.0592	0.0182	-0.0073	-0.0462	0.0165	0.9585
8.8263	48.8029	734.2105	60.3692	-249.1526	-35.4138	639.7857	0.3346	-9.019	-0.46303	-3.7181	0.38625	-10.7369	-0.0592	0.0182	-0.0073	-0.0462	0.0165	0.9585
8.8379	53.103	737.4234	60.7976	-251.1066	-33.9456	636.665	1.6607	-9.9173	-0.039445	-4.0455	-0.63883	-11.8199	-0.0592	0.0182	-0.0073	-0.0462	0.0165	0.9585
8.8496	56.7001	742.716	62.0508	-253.5139	-33.324	635.9714	3.5819	-8.0154	0.81072	-3.2369	-2.3709	-9.658	-0.0592	0.0182	-0.0073	-0.0462	0.0165	0.9585
8.8612	59.4195	749.357	64.0753	-256.0478	-33.5859	637.1965	6.0673	-1.3934	2.2085	-0.52242	-4.9348	-2.0378	-0.0592	0.0182	-0.0073	-0.0462	0.0165	0.9585
8.8729	61.1661	756.3335	66.6476	-258.3248	-34.6074	639.5695	8.9901	12.2099	4.2459	5.0116	-8.3615	13.6177	-0.0592	0.0182	-0.0073	-0.0462	0.0165	0.9585
8.8845	62.0169	762.3058	69.4274	-259.897	-36.1225	641.9429	11.9236	35.2459	6.931	14.3395	-12.4639	40.1466	-0.0592	0.0182	-0.0073	-0.0462	0.0165	0.9585
8.8961	62.1682	765.6399	71.9479	-260.2702	-37.7152	642.8694	14.1624	69.7544	10.1146	28.2698	-16.7478	79.8945	-0.0592	0.0182	-0.0073	-0.0462	0.0165	0.9585
8.9078	61.9376	764.5553	73.6824	-258.9478	-38.8783	640.6822	14.4736	116.5683	13.38	47.1127	-20.2223	133.871	-0.0592	0.0182	-0.0073	-0.0462	0.0165	0.9585
8.9194	61.5736	757.2833	74.0718	-255.465	-39.0836	633.7151	11.2616	174.1004	15.9423	70.1987	-21.3416	200.2944	-0.0592	0.0182	-0.0073	-0.0462	0.0165	0.9585
8.9311	61.2563	742.1366	72.6683	-249.392	-37.9162	620.3718	3.1474	237.4052	16.7677	95.489	-18.4111	273.5375	-0.0592	0.0182	-0.0073	-0.0462	0.0165	0.9585
